# File created by Blade
# Date/Time:  Wed Jan 21 17:16:23 2015
# Frame Rate: 120.000 fps
#------------------------------------------------------
:FULLY-SPECIFIED
:DEGREES
719
root 22.412325 10.357056 -18.269628 -161.860816 -28.919262 -214.844969
Spine 60.264863 -9.881063 -16.980475
Head 16.243829 23.063816 -6.927752
LeftShoulder 14.075491 -35.137824 4.875091
LeftArm 51.301349 44.515207 -49.745069
LeftForeArm 36.624487 0.000000 43.499835
LeftHand -12.578957 -0.000000 10.256956
LeftHandThumb1 -26.253704 0.000000 33.147579
RightShoulder 0.493948 -13.323749 9.143056
RightArm 29.333507 -6.088105 72.454242
RightForeArm -48.870624 0.000000 38.003856
RightHand -2.235109 -0.000000 -38.386180
RightHandThumb1 -24.326973 -0.000000 -32.862282
LeftUpLeg -16.873828 27.382935 9.969110
LeftLeg 128.050269 -0.000000 -0.000000
LeftFoot 45.175152 13.825474 17.975514
LeftToeBase 28.770427 -0.000000 -0.000000
RightUpLeg -118.146420 -24.753319 56.443880
RightLeg 126.011499 -0.000000 -0.000000
RightFoot 33.392554 -19.412859 17.587108
RightToeBase 34.656110 -0.000000 -0.000000
720
root 22.395568 10.354081 -18.291850 -161.832409 -28.826479 -214.842368
Spine 60.165806 -9.948642 -16.998082
Head 16.403900 23.131535 -6.920487
LeftShoulder 14.164525 -35.042120 4.887944
LeftArm 50.948569 44.422148 -49.639907
LeftForeArm 36.171030 -0.000000 44.104546
LeftHand -12.434663 -0.000000 10.225356
LeftHandThumb1 -26.253704 0.000000 33.147579
RightShoulder 0.436170 -13.264751 9.212264
RightArm 29.258209 -6.027325 72.485814
RightForeArm -48.785152 -0.000000 37.971565
RightHand -1.965441 0.000000 -38.237096
RightHandThumb1 -24.326973 -0.000000 -32.862282
LeftUpLeg -16.703451 27.502898 10.064676
LeftLeg 127.962162 -0.000000 -0.000000
LeftFoot 45.156850 13.887222 17.982735
LeftToeBase 28.597209 -0.000000 -0.000000
RightUpLeg -118.095861 -24.703320 56.350170
RightLeg 126.125301 -0.000000 -0.000000
RightFoot 33.507475 -19.470164 17.430889
RightToeBase 34.681150 -0.000000 -0.000000
721
root 22.377636 10.352515 -18.313445 -161.797104 -28.720829 -214.848343
Spine 60.073977 -10.024140 -17.051071
Head 16.533328 23.153057 -6.944966
LeftShoulder 14.205853 -35.003918 4.856515
LeftArm 50.666076 44.418978 -49.385718
LeftForeArm 35.667237 -0.000000 44.677773
LeftHand -12.318996 -0.000000 10.151432
LeftHandThumb1 -26.253704 0.000000 33.147579
RightShoulder 0.417759 -13.214762 9.265079
RightArm 29.183549 -5.928498 72.542997
RightForeArm -48.622979 -0.000000 37.958518
RightHand -1.567644 -0.000000 -38.059068
RightHandThumb1 -24.326973 -0.000000 -32.862282
LeftUpLeg -16.531563 27.634736 10.135861
LeftLeg 127.884951 -0.000000 -0.000000
LeftFoot 45.082314 13.842517 18.072964
LeftToeBase 28.392664 -0.000000 -0.000000
RightUpLeg -118.052415 -24.642808 56.268012
RightLeg 126.225267 -0.000000 -0.000000
RightFoot 33.596257 -19.585645 17.311676
RightToeBase 34.669436 -0.000000 -0.000000
722
root 22.359241 10.351161 -18.335906 -161.768767 -28.606155 -214.848895
Spine 59.993553 -10.097589 -17.097995
Head 16.649667 23.172922 -6.958843
LeftShoulder 14.206910 -34.859034 4.864921
LeftArm 50.650734 44.408797 -48.904523
LeftForeArm 35.179942 -0.000000 45.163175
LeftHand -12.289456 0.000000 10.160106
LeftHandThumb1 -26.253704 0.000000 33.147579
RightShoulder 0.408842 -13.288190 9.289799
RightArm 29.220881 -5.781118 72.622802
RightForeArm -48.523510 0.000000 37.979618
RightHand -1.328030 -0.000000 -37.787024
RightHandThumb1 -24.326973 -0.000000 -32.862282
LeftUpLeg -16.341717 27.781750 10.220126
LeftLeg 127.793147 -0.000000 -0.000000
LeftFoot 45.052175 13.903942 18.121581
LeftToeBase 28.347220 -0.000000 -0.000000
RightUpLeg -118.001300 -24.589924 56.175823
RightLeg 126.324133 -0.000000 -0.000000
RightFoot 33.660602 -19.671960 17.173784
RightToeBase 34.596084 -0.000000 -0.000000
